<?xml version="1.0" encoding="utf-8"?>
<!-- Generator: Adobe Illustrator 19.2.0, SVG Export Plug-In . SVG Version: 6.00 Build 0)  -->
<svg version="1.1" id="Layer_1" xmlns="http://www.w3.org/2000/svg" xmlns:xlink="http://www.w3.org/1999/xlink" x="0px" y="0px"
	 viewBox="0 0 800 600" style="enable-background:new 0 0 800 600;" xml:space="preserve">
<style type="text/css">
	.st0{stroke:#27AAE1;stroke-miterlimit:10;}
	.st1{fill:#1C75BC;stroke:#FFFFFF;stroke-miterlimit:10;}
	.st2{fill:#27AAE1;stroke:#FFFFFF;stroke-miterlimit:10;}
</style>
<g>
	<path class="st0" d="M387.2,235.9c-10.3,0-20.7-0.1-31,0.1c-4,0.1-6.2-1-7.8-5.1c-5.4-14-15.4-24-29.3-29.7c-1.9-0.8-4.6-0.7-6.6,0
		c-19.9,8-33,28.2-32.7,50c0.3,21.3,14.2,41.2,34.2,48.5c1.7,0.6,4,0.5,5.6-0.1c14.1-5.9,23.9-16.2,29.2-30.4
		c1.3-3.3,2.9-4.6,6.5-4.6c21.2,0,42.3-0.2,63.5-0.3c6.2,0,6.7,0.8,5.5,6.7c-10.1,46.9-55.4,78.1-104.1,71.7c-1.9-0.3-4-0.2-5.9,0.1
		c-57.2,8.8-107.7-33.7-108.8-91.6c-1-54.1,46.6-98.1,101.1-93.6c4.6,0.4,9.3,0.7,13.9,0.1c47.3-6,90.5,22.7,103.1,68.7
		c0.3,1.1,0.4,2.3,0.8,3.4c1.4,4.3-0.5,5.8-4.7,5.7c-10.8-0.1-21.7,0-32.5,0C387.2,235.7,387.2,235.8,387.2,235.9z M297,163.2
		c-43.9-1.4-84.1,37.2-86.1,83.1c-2.1,47.3,34.8,88.9,80.4,91.9c54.7,3.6,87.9-38.7,92.2-68c-7.7,0-15.3,0.3-22.9-0.1
		c-4.6-0.2-6.9,1.1-8.9,5.5c-11.1,24.7-38.1,38.2-64.8,32.8c-26.9-5.4-46.3-28.5-47.2-55.9c-0.9-30,10.7-54.5,33.4-73.7
		C280.4,172.7,289.1,168.3,297,163.2z M418.1,230.1c-0.2-1.4-0.2-2.3-0.4-3c-10.4-41.5-53.7-69.9-96.7-63.6
		c-44.5,6.5-77.1,44.8-75.3,88.5c1,24.9,17.3,45.1,41.4,50.5c5.9,1.3,12.2,1.2,18.3,1.7c0.1-0.6,0.2-1.1,0.4-1.7
		c-8.9-4.9-16.5-11.3-21.9-20c-12.6-20.3-13.6-41.4-1.5-61.9c12.2-20.7,31.2-30.6,55.3-28.8c23,1.7,39.4,13.9,49.3,34.7
		c0.7,1.4,2.2,3.4,3.4,3.4C399.6,230.2,408.7,230.1,418.1,230.1z M333.6,337.6c37,2.6,82.1-33.9,84.4-67.5c-9.1,0-18.2,0-27.4,0
		C382.7,301.6,364,323.8,333.6,337.6z M326.9,197.9c0.1,0.3,0.1,0.7,0.2,0.9c11.9,6.9,20.8,16.5,26.2,29.2c0.4,1,1.9,2.1,2.9,2.1
		c8.4,0.2,16.8,0.1,25.4,0.1C375.1,209.1,347.1,192.9,326.9,197.9z"/>
	<path class="st1" d="M297,163.2c-7.9,5.1-16.6,9.5-23.9,15.6c-22.7,19.1-34.3,43.6-33.4,73.7c0.9,27.4,20.3,50.4,47.2,55.9
		c26.7,5.4,53.7-8,64.8-32.8c2-4.5,4.3-5.7,8.9-5.5c7.6,0.3,15.2,0.1,22.9,0.1c-4.3,29.4-37.5,71.6-92.2,68
		c-45.6-3-82.5-44.6-80.4-91.9C212.9,200.4,253.1,161.8,297,163.2z"/>
	<path class="st2" d="M418.1,230.1c-9.4,0-18.5,0.1-27.6-0.2c-1.2,0-2.7-2-3.4-3.4c-10-20.8-26.3-32.9-49.3-34.7
		c-24.1-1.8-43.1,8.1-55.3,28.8c-12.2,20.6-11.2,41.6,1.5,61.9c5.4,8.6,12.9,15.1,21.9,20c-0.1,0.6-0.2,1.1-0.4,1.7
		c-6.1-0.5-12.4-0.4-18.3-1.7c-24.1-5.4-40.4-25.6-41.4-50.5c-1.8-43.7,30.8-82,75.3-88.5c43-6.3,86.3,22.2,96.7,63.6
		C417.9,227.8,417.9,228.6,418.1,230.1z"/>
	<path class="st2" d="M333.6,337.6c30.5-13.8,49.2-36,57-67.5c9.2,0,18.3,0,27.4,0C415.6,303.7,370.6,340.2,333.6,337.6z"/>
	<path class="st1" d="M326.9,197.9c20.2-5,48.1,11.2,54.7,32.3c-8.6,0-17,0.1-25.4-0.1c-1,0-2.4-1.1-2.9-2.1
		c-5.4-12.7-14.3-22.3-26.2-29.2C327,198.6,327,198.2,326.9,197.9z"/>
</g>
</svg>
